/* XPM */
static char *result[] = {
/* columns rows colors chars-per-pixel */
"64 64 247 2 ",
"   c #0B0C02",
".  c #0A1604",
"X  c #191703",
"o  c #13100C",
"O  c #171816",
"+  c #271B03",
"@  c #2D1C15",
"#  c #1B2E15",
"$  c #292406",
"%  c #342B05",
"&  c #3B3404",
"*  c #292518",
"=  c #352315",
"-  c #2F3413",
";  c #1A1B22",
":  c #291A2C",
">  c #341C29",
",  c #2A2A2B",
"<  c #38232C",
"1  c #37392A",
"2  c #372439",
"3  c #453404",
"4  c #4B380F",
"5  c #453819",
"6  c #4D3A25",
"7  c #4C3735",
"8  c #294D1B",
"9  c #2C5819",
"0  c #334B27",
"q  c #324E2A",
"w  c #3C672E",
"e  c #484603",
"r  c #564B04",
"t  c #595404",
"y  c #535014",
"u  c #655C05",
"i  c #675111",
"p  c #695B17",
"a  c #4F6414",
"s  c #6C6303",
"d  c #696307",
"f  c #756806",
"g  c #7A7304",
"h  c #6B6613",
"j  c #787017",
"k  c #564E2F",
"l  c #494438",
"z  c #665828",
"x  c #6A5532",
"c  c #476E2E",
"v  c #456436",
"b  c #6D642B",
"n  c #73662D",
"m  c #7A7528",
"M  c #746636",
"N  c #18275D",
"B  c #372443",
"V  c #32364C",
"C  c #1C2A63",
"Z  c #252766",
"A  c #292766",
"S  c #212B66",
"D  c #272768",
"F  c #252B6A",
"G  c #2B2A6C",
"H  c #322A6E",
"J  c #2D356C",
"K  c #2E2C71",
"L  c #332D75",
"P  c #362F79",
"I  c #393677",
"U  c #373079",
"Y  c #3A337B",
"T  c #44294B",
"R  c #493544",
"E  c #4E3351",
"W  c #49365B",
"Q  c #4A3666",
"!  c #543966",
"~  c #463A79",
"^  c #413A7E",
"/  c #593D71",
"(  c #3C474F",
")  c #4E4E4B",
"_  c #5A594A",
"`  c #5A4559",
"'  c #595A56",
"]  c #68574A",
"[  c #6C5552",
"{  c #586C51",
"}  c #737554",
"|  c #544A68",
" . c #48427C",
".. c #5B4578",
"X. c #674B6A",
"o. c #6B5565",
"O. c #75596B",
"+. c #654878",
"@. c #6A5576",
"#. c #74577A",
"$. c #586B64",
"%. c #787B67",
"&. c #71716F",
"*. c #857806",
"=. c #887615",
"-. c #877D16",
";. c #85772E",
":. c #827D4E",
">. c #658A32",
",. c #588747",
"<. c #579149",
"1. c #68925A",
"2. c #67AD4C",
"3. c #6BA856",
"4. c #75AB5A",
"5. c #75B559",
"6. c #7F8268",
"7. c #76A965",
"8. c #79B764",
"9. c #7AC45A",
"0. c #7ED568",
"q. c #958A0C",
"w. c #9D9607",
"e. c #898511",
"r. c #968B16",
"t. c #979315",
"y. c #A59D09",
"u. c #A59A19",
"i. c #9BA311",
"p. c #AAA50A",
"a. c #B8B00B",
"s. c #A9A415",
"d. c #B5AC17",
"f. c #BCB518",
"g. c #968C24",
"h. c #A59927",
"j. c #B2AC29",
"k. c #C1B70D",
"l. c #C5B914",
"z. c #C6BB26",
"x. c #C8BF35",
"c. c #DBD40D",
"v. c #C8C219",
"b. c #D1C912",
"n. c #D9D618",
"m. c #E2DC0A",
"M. c #E6DB18",
"N. c #ECE60B",
"B. c #FDEE03",
"V. c #F4EB0C",
"C. c #F8EC09",
"Z. c #F5F107",
"A. c #FCF203",
"S. c #FCF20B",
"D. c #EAE517",
"F. c #F5EC15",
"G. c #F9F212",
"H. c #CBC326",
"J. c #D5C827",
"K. c #DBD627",
"L. c #DBD531",
"P. c #E4DC21",
"I. c #E7DD31",
"U. c #E9E221",
"Y. c #898551",
"T. c #918F6D",
"R. c #878B77",
"E. c #979878",
"W. c #91B26D",
"Q. c #86C866",
"!. c #8FD771",
"~. c #89D578",
"^. c #94EC6C",
"/. c #98E774",
"(. c #9CF672",
"). c #A2F172",
"_. c #A2F777",
"`. c #3F3680",
"'. c #443C82",
"]. c #463C84",
"[. c #4C4285",
"{. c #4A4584",
"}. c #4D438A",
"|. c #52468B",
" X c #584A8A",
".X c #5B4C92",
"XX c #5E5390",
"oX c #694C88",
"OX c #6A5588",
"+X c #745A88",
"@X c #684D95",
"#X c #685797",
"$X c #745897",
"%X c #7B648A",
"&X c #796496",
"*X c #6A57A3",
"=X c #795CA7",
"-X c #7966A7",
";X c #7768AB",
":X c #835C93",
">X c #85679A",
",X c #845AAB",
"<X c #8368A9",
"1X c #8E70AF",
"2X c #8A6CB8",
"3X c #8B73B5",
"4X c #9678B9",
"5X c #956DC9",
"6X c #9A76C7",
"7X c #A679D2",
"8X c #AB7EE4",
"9X c #95978D",
"0X c #9F959F",
"qX c #A8A789",
"wX c #A8AD99",
"eX c #B5B69B",
"rX c #9DA1A2",
"tX c #A8A9A8",
"yX c #B1AFA7",
"uX c #B7B8A4",
"iX c #B5B5B7",
"pX c #C1BEA2",
"aX c #B4D1A8",
"sX c #CBC9AC",
"dX c #C8CBB6",
"fX c #CED1B5",
"gX c #D4D7BC",
"hX c #A984D8",
"jX c #B18DD4",
"kX c #B384E9",
"lX c #C6C8C5",
"zX c #D3D5C7",
"xX c #D7D9D7",
"cX c #DEE2D7",
"vX c #E5E6CC",
"bX c #E7E9D7",
"nX c #EDF1D8",
"mX c #F5F7DB",
"MX c #D6D9E1",
"NX c #E8EAE8",
"BX c #F7FAE5",
"VX c #F0F1EF",
"CX c #FBFDEC",
"ZX c #EDECF2",
"AX c #F4F6F2",
"SX c #FBFDF4",
"DX c #FBFCFD",
/* pixels */
"P P P P K D Z N Z L P P P P F G L U P P P P P P P P P P P P P L L A D N S L P P P P G G P P P P P P P P P P P P P P P P K D D C ",
"P P P L D D G Z D P P P P K C C P P P P P P P P P L L P P P P P A A G Z A Y P P P L C C L P P P P P P P P L L P P P P P K D G D ",
"P P P P L G Z K L P P P P P K K P P U U P P P P P H G Y P P P P L G A I ]..X|.}.`.P G L P P P P P P P P P H D K P P P P L H D G ",
"P P P P P K D L P P P P P U U U P U U }..X.X.X|. X~ I '.Y P P P P L L .X*X,X<X=X$X].].^ P P P P P P P P P K G P P P P P P L G G ",
"P P P P P L P P P P P P U P P L P Y {.&XoX+.+.+.+.Q ..@X'.P Y P U U ^ oXOXoX+.oXoX|.oX].'.P P P P P P P P P P P P P P P P P P L ",
"P P P P P P U U P P P P P P P K I {.#XOXT 2 > > > < E $X*X].|. X|.|.oX| T > > > : 2 ! +.~ ].P P P P P P P P P P P P P P P P P P ",
"P L K P P K G K P P P P P U P Y |.OX+X[ l 3 & & 3 3 7 #.<X+X+X$X&X&X:X_ 5 % 3 3 3 4 k O.+X@X].'.P P P P P P P P P L K L P K D K ",
"P G Z L P G N K P P P P P U {.#X#X#.` M ;.-.e.e.*.e.;.[ +./ ! ! ` ` _ M m e.e.*.=.=.=.x X.oXoX].U P P P P P P P P H D K P K C F ",
"P L K L U K F L P P U G G |.#X<X:XR 4 =.j.J.v.H.z.x.h.x 7 : : : : @ 5 g.j.x.x.z.x.J.h.i 6 X.:X@X'.P L D L P P P P L K L P L K K ",
"P P P P U U U U P P L G ^ #X&X>XO.6 f u.L.I.v.f.d.f.h.m k l ) l ) l b ;.h.d.l.l.J.I.z.*.i [ :XoX|.P K S S K P P P P P P P P P P ",
"P P U P U U U U Y ^ ^ U -X-X+X` ] =.u.v.I.z.w.d u s d 1.E.9X9X9X9XqXT.m u u u g s.P.M.k.g.;.` +.@X^ L K N S U P P P P P P P P P ",
"P P U U U U U {.XX#X&X#X0X&XW , y u.J.K.L.s.f & % - k T.fXvXcXvXvXvXeX} 8 % % y e.H.n.J.d.;.4 B oX@XI C J K L P P P P P P P P P ",
"P P P P J J `.#X<X$X>X+X$X..2 O & j h.i.h.g.;.x _ _ %.eXNXBXSXSXBXBXzX9Xo.) k M m t.i.i.t.a X ; W oX/ ~  . X~ L P P P P K G L P ",
"L P P L C J #X3X2X+.T T B 2 O o $ & y e t j Y.qXwXyXiXxXVXAXDXAXSXAXNXlXiXyXyXE.1.y a e e $   o ; B T B W #.~ A G P P P F C K P ",
"P P P L  .XX1X4X>XE = = = $ + $ X X X $ - z W.vXnXNXNXNXNXNXAXAXVXbXNXZXZXZXZXzXT.l - X X   X + + = = < 1 o.OX{.U P P P K F L K ",
"P P P P OX1X1X%Xo.n i d s s s u e X . - _ T.sXmXCXSXNXlXtXiXMXNXlXrXtXzXAXDXDXNXyX%.l *   $ r d s s s h b ] o.OX|.Y P P L K P G ",
"P P P }.-X4X+X7 k g.d.l.l.k.l.d.j % * _ qXfXvXBXCXSXxX0X$.&.lXcXrX' $.yXNXDXDXAXcXdXR.) . e t.j.k.a.k.l.h.;.6 ` :X/ ].Y L Z L U ",
"P P ].-X4X>X[ 5 j a.M.V.N.V.U.P.t.& - } fXmXmXCXSXDXxX9X) &.iXNXtX$.&.yXBXDXDXSXBXnXwX_ X d f.D.N.V.N.D.M.q.r 7 #.oX.X|.].H L U ",
"P P *X<XoX[ M j u.b.C.B.B.C.F.U.i.e - %.gXmXBXCXAXDXNXiX9XrXxXNXlXrXrXlXVXSXSXCXCXmXeX_ $ d v.N.A.A.A.S.M.k.=.;.] X.$X#XXXI G K ",
"P L ;X-X! 6 ;.j.b.N.B.B.B.B.F.M.w.e - 6.vXmXBXSXAXAXAXcXxXMXVXAXNXMXMXNXVXAXAXAXCXBXuX] $ s v.F.Z.A.A.A.C.M.J.h.z 7 +.$X#XI C S ",
"G K ;X=X! 7 ;.h.J.M.A.A.B.B.S.M.y.e , :.gXmXCXCXnXzXlXNXVXDXDXDXDXDXZXMXlXMXNXAXCXBXuX] + u v.F.A.A.Z.S.V.n.z.=.z T @X*XXXU J F ",
"Z K .X#X@XX.[ n r.v.F.S.S.B.S.D.y.e = :.gXmXmXnXdX6.6.lXZXDXDXDXDXDXMXrX9XrXxXSXBXmXeX_ $ s v.F.Z.Z.Z.G.D.a.=.=.[ OX#XXX}.Y U U ",
"L L G J  X:XO.5 p s.P.D.D.N.D.K.y.e 3 :.sXmXCXvXwX_ _ rXxXVXZXZXVXZXlX&.v &.dXmXmXmXeXz & f f.n.D.D.D.D.J.q.r 6 O.#X].J J L U U ",
"P P L F Y >X#.E x g.s.s.s.p.p.p.q.u u :.qXsXvXnXeX} { 6.tXiXiXiXiXiX9X%._ R.fXnXgXpXT.b t g u.p.a.a.s.s.u.n k ` &X~ U F F U U U ",
"P P P P P .X&X:XO.x t t t t t u f q.r.m M T.pXnXzXeXE.&.o.' ' ' ' ' } R.9XsXvXvXqX} n -.t.e.f u u r u r z ] #.oX|.Y P L U P P P ",
"P P P P U U |.3X<XE = * X + % & f d.l.*.t z qXvXvXvXsXR.q , , , , , _ 9XgXvXvXsXT.y u s.v.q.t % + + + @ 7 X.:X].Y P P L P P P P ",
"L H G L U P U =X2XOXW :   X & u w.b.n.p.*.j Y.E.sXbXvX9X} { ] ' _ ' R.eXvXgXeXT.} f e.k.m.p.>.r +   o B ! $X].'.L L A L P P P P ",
"L G G L L U U '.2X5X&XE + & s y.l.D.N.c.f.t.j z E.gXnXgXpXeXuXyXuXuXsXvXnXpX:.j -.y.b.m.N.c.k.w.r + <  X<X=X'.P P L Z L P P P P ",
"L L L P P P U U ;X7X,XX.4 r y.n.V.C.B.F.M.f.g r } eXgXzXfXdXgXfXdXdXlXgXsXE.z u q.n.D.V.B.F.M.l.*.3 7 #.4X,X].P P L L P P P P L ",
"H P P P P L A Z =X,X+.:.f -.k.M.C.B.B.A.F.b.y.>.;.Y.R.T.R.T.R.E.9XR.E.E.Y.Y.j *.a.M.S.S.B.S.F.M.y.*.n o.$X2X].P P P P P P P G F ",
"H P P P L G N C =X/ 7 M h.z.M.V.B.B.A.A.S.N.c.f.e.h 0 1 1 1 1 0 1 1 1 6 y h s.l.c.C.B.B.A.S.C.F.n.l.r.k T $X^ P P P P P L G Z N ",
"H P P L D D G L $XT = f z.F.C.B.B.B.A.A.A.Z.N.n.p.s % X   . # * O . . $ & g v.D.Z.A.B.C.C.S.S.S.F.D.p.4 > ..Y P P P P P H Z G Z ",
"L P P P G F G Y $X2 + f v.F.B.B.A.B.A.B.B.B.C.C.b.t.d $ . # w v 8 . . t g p.c.F.C.B.B.B.B.B.Z.A.Z.D.s.4 : / H P P P P P H D D G ",
"P P P P P G S Y $XT = *.l.N.C.B.A.A.A.B.B.B.C.C.n.H.i.a . # 1.4.>.# & >.j.n.P.F.V.B.B.B.B.B.A.A.V.D.u.y > ..H H P P P P P L A G ",
"P P P P P L K L @X/ 7 n h.l.M.V.A.A.A.A.C.N.l.k.f.j.g.y . q 7.~.<.9 a >.j.j.f.l.c.V.S.B.A.A.A.V.b.l.g.k R OXY P P P P P P P L L ",
"P P P P P P U U ~ |.#.] p *.k.F.F.G.G.S.F.b.w.f u h e $ . q 7./.9.2.>.>.a h u *.d.M.F.S.B.S.G.c.y.f b [ .. XY P P P P P P P P P ",
"P P L P U P K U U '.$XX.6 i r.J.U.D.M.D.M.d.f 3 = + $   . 8 2./.^.!.3.a $ + + 4 -.J.P.M.M.N.P.z.=.4 ) #. .Y P P P L P P P L L L ",
"P G D L U G C K U U  X:XE x ;.u.p.u.s.p.s.;.x E T T 2 ; . 8 5.^.(.).Q.v X ; = 6 m t.s.p.p.p.u.g.n 7 o. X~ P P P P K D K P L C D ",
"P G G P P G C K U L Y OX+Xo.[ i t r r t r x O.:X,X<X..V . 9 5./.(._.Q.v o B X.:.[ z r r r r r k [ :XoX~ L P P P P L D L U K C G ",
"P P P P U U L P P U L L  X$XX.> @ @ * @ = E :X7X7X4X&X) * w Q./.(.!.8.) : / ,X2X@.2 @ @ @ * @ R #.$X^ Z G L P P P P P P P P K P ",
"H P P P P P P P P P P K Y .X@X/ ! W Q W ! @X5X8X6X<X@.{ v <.Q.^.Q.3.{ '  .#X6XhX&X/ Q ! Q W Q +.@X].P G C F P P P P P P P P P P ",
"H P P P P P P P P P P P P '..X.X@X$X=X=X2X5XkX7X,XQ R { 8.Q./.Q.2.c ( OX5X6XjX5X;X$X@X@X@XoXoX@X].U K F C F L P P P P P P P P P ",
"H P P P L P P P P P P P P P Y ].}..X.X*X-X1XjXjX$XB , ,.~.!.!.Q.,.q ( =XkXhX4X-XXX.X.X.X[.^ Y '.U U F C D P L P L P P P P L P P ",
"L P P L S D P P P P P P P P Y P U U Y `.'.|.>X4X#X, # <.!.~.7.{ _ ` +X5XkXjX-X#X{.'.'.Y Y L L P U U K G K P L G K P P P G C L P ",
"L P P L C F L K L P P P P P P P P P P P P P ].4X@X: # <.~.8.c 0 ) %X6X8XkX6X.XU L P P P P P P P U P P P P P L D K P P P G C K L ",
"P P P P L L L D G P P P P P U P P P P P P P ^ 1X#X: , <.aX8.c 0 ' &X5X8XkX.XU P P P P P P P P P P P P L P P P L P P P P L K K K ",
"P P P P G G L K L P P P P P P P P P P P P U Y <X@X: # <.0.0.2.,.{ | $X5XkX|.U P P P P P P P P P P P K G L P P P P P P P K D P K ",
"P P P L G G P P P P P P P P P P P P P P P U L $X@XV , <.0.^.!.W.{ 1 W =XhX}.U P P P P P P P P P P P K D K P P P P P P P K D P P ",
"H P P P P L P P P P P P P P P P P P P P P P L *X=X~ ) { 3.Q./.!.,.# 2 *XhX].P P P P P P P P P P P P P L P P P P P P P P P L L P ",
"H P P P P G C K P P P P P P P P P P P P P P P *X5X-X+X' v >.Q.~.,.# , #XhX|.Y P P P P P P P P P P P P P P L P P P P P P P L C G ",
"A L P P P F C K U P P P P P P P P P P P P P P }.3X6X3X` * w 5.0.<.# 1 OXhXXX'.Y P P P P U P P P P P P P L L P P L L L P U K C F ",
"N G P P P P K P P P P P P P P P P P P P P P P P  .3X5X! O 0 4.aX2.c ) ' +X$X[.Y P P P P P P P U P P P L D G P P G Z L P P U K K ",
"A H K F K L P P P L G K P P P P K C K P P P P P I ;X;X| ; q 4.!.0.5.1.{ W oX .I U P P U L C K P P P P P K K P P K K P C G U U P ",
"H P G C K P P P P K D K P P P L F C F P P P P P I ;X;XQ ; q 4./.(./.8.v , / |.I U U P L F C C U P P P P P P P P P U L C C U P P ",
"H P P L L P P P P L K P P P P C C F P P P P P P I ;X;X .O q 8.)._._.Q.w O J .X|.`.P P G C C L P P P P P P P P P P P U L K P P P ",
"H P P P L P P P P L G L P P U K F L P P P P P P {.;X5X| O 9 5.(.(._.9.q O Q .X|.`.P P K F L P P P P P P P P P P P P P P P P P P ",
"P L L P P P P P P L D K P L L L P P P P P P P `.#X3X;X| q w 5.^.(.(.9.w O Q [.Y P P L L P P P P P P P P L L P P P P L L P P P P ",
"P G D L P P P P P L L P P L D G P P P P P P P ].;X#X| $.<.3.0.(.(._.8.w # V |.Y P P D D P P P P P P P L C C P P P K D K P P P P ",
"P H G P P P P P P P P P P L H K P P P L G K `.*X=X! V <.7.~.^.(.(._.8.v ; Q [.I P P G K P P P L G L P L F F P P P K G L P P P P ",
"P L P P P P K G L P P P P P P L P P P K F K *X7X,X! V $.7.7.9.9.Q.5.1._ V ..^ Y P P P P P P P K D G P P P P P P P P P P P P L L ",
"P P P P P H C N C L P P P P P P P P P L K L XX5X1X%Xo.{ { w w w w w ) ' | $XI I P P P P P P P P L L P P P P P P P P P P P L Z N ",
"P P P P K D Z N F P P P P L F K P P P P U U '.XX<X1X&X..| ( V V V V V J I  XY U P P F F P P P P P P P P P P P P P P P P K G D N ",
"P P P L D D G Z K P P P P L C C P P P P U U U '.XXXXXX{.{.^ ^ `.J J K A A L P U P L C C L P P P P P P P P P L P P P P P H Z G D ",
"L P P P L F Z G L P P P P P K L P U P P P P U U L J F I U U U U K F D G L P P P P P K K P P P P P P P P P G D L P P P P L H D D "
};
