/* XPM */
static char *result[] = {
/* columns rows colors chars-per-pixel */
"64 64 145 2 ",
"   c #160A16",
".  c #1A0C1A",
"X  c #200E1F",
"o  c #160D20",
"O  c #1A0F23",
"+  c #1E1027",
"@  c #1F1129",
"#  c #1E1636",
"$  c #1F1638",
"%  c #1D193D",
"&  c #210F22",
"*  c #251025",
"=  c #281227",
"-  c #25132B",
";  c #2D142D",
":  c #30152F",
">  c #231534",
",  c #2C1633",
"<  c #251933",
"1  c #281830",
"2  c #211739",
"3  c #24193B",
"4  c #2D1A3A",
"5  c #321632",
"6  c #351836",
"7  c #391739",
"8  c #341B3B",
"9  c #3B1A3B",
"0  c #33203E",
"q  c #1D1C44",
"w  c #181F48",
"e  c #231A41",
"r  c #2C1C44",
"t  c #241E4B",
"y  c #291E4B",
"u  c #341C42",
"i  c #3B1F42",
"p  c #311E4A",
"a  c #261F50",
"s  c #1E204D",
"d  c #122557",
"f  c #16255A",
"g  c #1B255E",
"h  c #19295F",
"j  c #2D204E",
"k  c #372043",
"l  c #3E2245",
"z  c #34214B",
"x  c #262052",
"c  c #2A2154",
"v  c #22225A",
"b  c #2B2258",
"n  c #332253",
"m  c #3D2456",
"M  c #32245B",
"N  c #1E2560",
"B  c #1C2A63",
"V  c #252766",
"C  c #2B2764",
"Z  c #212A67",
"A  c #2E2866",
"S  c #272768",
"D  c #252B6A",
"F  c #2B2A6C",
"G  c #372661",
"H  c #3C2760",
"J  c #302967",
"K  c #392864",
"L  c #322A6B",
"P  c #3E2E6A",
"I  c #2E2C71",
"U  c #332D75",
"Y  c #392D71",
"T  c #362F79",
"R  c #3E337D",
"E  c #421E42",
"W  c #432045",
"Q  c #45234C",
"!  c #4A234C",
"~  c #50244F",
"^  c #4C2651",
"/  c #462953",
"(  c #4B2853",
")  c #462E5C",
"_  c #4A2F5B",
"`  c #522652",
"'  c #512957",
"]  c #552C5D",
"[  c #5B295B",
"{  c #4A305D",
"}  c #592F61",
"|  c #473062",
" . c #4D346A",
".. c #553366",
"X. c #5D3166",
"o. c #563568",
"O. c #5D356C",
"+. c #56396D",
"@. c #40347E",
"#. c #4A387F",
"$. c #5D3B74",
"%. c #623A75",
"&. c #633F7A",
"*. c #683F7D",
"=. c #62417C",
"-. c #3E3481",
";. c #4F3B85",
":. c #523D84",
">. c #513E8C",
",. c #574291",
"<. c #5A4495",
"1. c #5C4896",
"2. c #5D469A",
"3. c #644282",
"4. c #694587",
"5. c #6D498C",
"6. c #70478E",
"7. c #72498E",
"8. c #624891",
"9. c #6F4C94",
"0. c #654999",
"q. c #724C94",
"w. c #784E97",
"e. c #724E9B",
"r. c #794F99",
"t. c #7A519C",
"y. c #6149A0",
"u. c #7150A4",
"i. c #7D55A3",
"p. c #7554AB",
"a. c #7957B1",
"s. c #8155A3",
"d. c #865BAE",
"f. c #855BB1",
"g. c #825DB9",
"h. c #8F62BB",
"j. c #9062BB",
"k. c #8862C6",
"l. c #9566C3",
"z. c #9D6ACB",
"x. c #9E6DD0",
"c. c #A16ED2",
"v. c #A471DB",
"b. c #A674E1",
"n. c #AF78E5",
/* pixels */
"T T T T I F V f V T T T T U Z I T T T T T T T T T T T T T T T T I S V g N T T T T T D D T T T T T T T T T T T T T T T T U S S N ",
"T T T U V V F V D T T T T U B B T T T T T T T T T U T T T T T T A V F S V T T T T U B B T T T T T T T T T U U T T T T T F S I V ",
"T T T T U F V F U T T T T T I I T T T T T T T T T F F U T T T T U F V F U T T T T T I I T T T T T T T T T I V I T T T T T F V S ",
"T T T T T I F U T T T T T T T T T T T T T T T T T F F U T T T T T U F I T T T T T T T T T T T T T T T T T U F U T T T T T U F I ",
"T T T T T T T T T T T T T T T T T T T T T T T T T T T T T T T T T T U T T T T T T T T T U T T T T T T T T T T T T T T T T T T T ",
"T T T T T T T T T T T T T T T F S U T T T T T T T T T T T e o o o o b T T T T T T T T I V U T T T T T T T T T T T T T T T T T T ",
"T U I T T I F I T T T T T T T I F U T T T T T T T e o O e.c.x.z.z.x.| o o b T T T T T I F U T T T T T T T T T T T T F U T U F I ",
"T F V U T D B I T T T T U T T T U T T T T T T e b p.d.i.r.3.$.$.%.=.w.t.f.,.e o c T T T T T T T T T T T T T T T T I S I T I B B ",
"T I U T T I D U T T U F F T T T T T T T T e x 0.q.&...( ! ! E E ! ! Q ' o.$.q.l.| b T T T T T T T T U D I T T T T U I T T U F I ",
"T T T T T T T T T T T F F U T T T T T e a u.t.$.] ^ E 9 6 E E i 9 9 7 9 E ! ] 3.s.z. .a T T T T T T I S S I T T T T T T T T T T ",
"T T T T T T T T T T T T T T T T T T e 7.k.4.} ^ E 6 5 & - E ` E E 8 = = = 5 E ^ ] 7.l.2.T T T T T T T D B B T T T T T T T T T T ",
"T T T T T T T T T T T T T T T T T e 5.d.*.[ ! 7 6 - &   y u & n Y P L 3     & 6 E ] &.f.| b T T T T I B B I T T T T T T T T T T ",
"T T T T I I T T T T T T T T T T T 0.q.%.` E 6 & y u E ! 8 a Y T I % 8 ^ E M > & 6 E ` O.6.l. .b T T I B I T U I U T T T I I I T ",
"T T T T B B T U T T T T T T T e 3.7.} E 7 6 M F U r E [ ` 5 , i - , ` [ E M L L p 5 7 ` } r.:.U T T T U T T U S F T T T D B I T ",
"I T T T F F U F U T T T T T e :.7.} ` H u O a -.T Y 3 5 E 6 = 5 * 6 E ; y Y T T m 5 a p ! } 7.>.T T T T T T U I U T T T I D U I ",
"T T T T U U U S F T T T T 3 5.r.X.` 7 - - n L I U T L 2 ; & y U A p = y F T T T r ; * a m ~ } t.m b T I U T T T T T T T U I T I ",
"T T T T V F U U U T T T T $ =.=.[ W E 6 : M F S U T T 3 = & - , @ = = b U T T T 3 * . + + 7 ` *.#.U I Z U T T T T T T T F V U T ",
"T T T T I I T T T e o o o 9.t.X.~ E E 9 = M U L U T T U L L 4 : a C L U T T T T $   e # j u ! } i.| O O o b T T T T R T U F U T ",
"T T T T T I I U R p.j.f.d.h.o.W 9 9 6 : ; , - b T T T R R T U L T U I U T T e < , = , ; , , 9 E $.i.d.d.j.<.T T T T T T T T I I ",
"T T T T T Z B I e 3.=./ / Q 8 : : : 6 6 9 9 6 8 u u 8 k 8 u 8 u i 8 8 8 u u 6 7 7 6 6 7 6 ; : : 6 Q ^ / =.;.T T T U T T T I B B ",
"D I T T T I D U $ q.7.1 . . . . . . . * = 5 7 9 9 9 9 9 9 9 9 9 7 7 9 9 6 5 6 9 9 5 ; ; X .   . . .   1 w.) c T I I U T T U D I ",
"Z I U I T T T T $ q.w.Q 9 9 9 9 7 9 E 5 c L P L b J Y L S A L A L Y L Y Y L L L Y L r 6 E 9 9 9 9 9 9 Q t.:.U T D D U I I T T T ",
"T T D B D T T T $ $.%.` ! 9 7 9 7 i ` E K T T T U U T T U T I B D T R T T U V F T T z ! ~ E 9 9 9 7 ! ' %.#.T T T U U B B T T T ",
"T T U D I T T T 2 w.s.Q ; , 5 5 5 ; , ; M T T T T T T T T T U Z F T T T T U F U T T r : ; ; : : 5 , 5 Q s.| b T T T T D D T T T ",
"T T T T T T T T U r r.$.8 9 E E E E n 3 c R T T T T T T T T T T T T T T T T U U T T 3 t 3 9 W E W E 1 =.{ c U T T T T T T T T T ",
"T T T T T T T T T S g.t.9 ; 5 5 5 : & O b U T T T U T T T T T T T T T T T U D F T T 2 x r ; 5 5 : : 8 t.{ x T T T T T T T T T T ",
"T I F T T T T T T U y =._ = ; 5 ; & & & b R T U D I T T T U F U T T T T T U F I T T $ . - ; : 6 : : { ,.F D T T T U F U T T T T ",
"U F V U T T T T T T $ =.o.5 9 9 5 : = & c U T U B D T T T F D U T T T T T T T T T T $ X = ; 5 E 6 : o.k s Z T T T I V I T T T T ",
"U U U T T T T T T T 2 =.o.5 7 9 6 : ; * t U T U I I T T T T I T T T T U T T T T T T 3 = = : : E 6 : o.0 y U T T T U U T T T T T ",
"L T T T T U S V I T % =.o.5 7 9 6 ; ; = x U T T T T T T T T T T T U F Z F T T T T T r ; 1 : 6 E 9 : o.0 c T T T T T T T T T F Z ",
"L T T T U F N d B T 2 =.o.; 6 9 6 ; ; ; M T T T T T T T T T T T U F V d B T T T T T 3 * = : 6 E 0 : o.0 x T T T T T T T U I V f ",
"L T T T S S F g D T 2 =.o.5 6 9 6 ; : ; M T T T T T T T T T T T F V F g Z U T T T T 2 = : : : E 6 : o.0 x T T T T T T T F V F V ",
"Y T T T F D F D U T 2 =.o.5 6 9 6 ; 5 7 G T T T T I I T T T T T I F F S F T T T T U p 7 7 : : E 7 ; ..8 a U I U T T T T U V S S ",
"T T T T T F V I U T 2 =.o.5 6 9 6 : 5 7 G T T T T F V U T T T T T I V F T T T T T T n 7 7 ; 7 i 7 ; o.u a I V U T T T T T U S F ",
"T T T T T T I U T T 2 =.o.: 6 9 6 ; 6 7 G T T T T U U T T T T T T U U U T T T T T T m i : : 5 E 8 ; o.8 a U I U T T T T T T U U ",
"T T T T T T T T T T 2 =.o.5 9 9 5 : 6 7 G T T T T T T T T T T T T T T T T T T T T T m E 5 : 7 i 9 ; o.k a R T T T T T T T T T T ",
"T U U T T T U T T T 2 =.o.5 6 9 6 ; 5 7 G T T T T T T U T T U T T T U T T T T T T T m E 5 : 5 E 6 1 o.0 j T T T T T U T T U U U ",
"T F S T T D B U T T 2 =.o.5 6 9 6 : 6 7 G T T T T T T T T I S U T I B F T T T T T T m E 7 : 5 i 6 : o.0 x T T T T U V I T U B Z ",
"T F F T T F B U T T 2 =.o.5 7 9 6 : 5 7 G T U F U T T T T F F U T I B I T T T U I T / E 5 : 5 ; = : o.0 x T T T T U S U T I B D ",
"T T U T T T U U T T 2 =.o.5 6 9 5 ; 6 7 G T F V U T T T T T T T T U U T T T T F S U m E 5 : 5 5 : : o.0 t U T T T T T T T T T T ",
"U T T e o a -.T T T $ $.+.5 6 9 7 ; 6 7 G T Y S B D T T T T T T T T T T T T T U I T m E 5 : 5 E 6 : o.0   w T R T e b T T T T T ",
"L T T a.c.v.b.b.b.b.v.l...5 7 9 6 ; 5 7 G T I Z B D T T T T T T T T T T T T T T T T m E 7 : 5 i 9 =  .h.c.v.b.v.b.x.v.y.T T T T ",
"L e 9.f.4.3.$.3.&.&.&.o.i 5 6 7 5 : 5 7 G T D B F T T U T T T T T T T T T T T T U U m E 5 : 5 i 9 : 9 o.&.&.=.=.&.&.3.f.| b T T ",
"U $ t.t.^ E ^ E ! ! ! E 5 , 5 & = ; 6 7 G T I D U T U S U T T T D B U T T T T T -.-./ E 7 : 5 E 9 5 5 W ^ Q Q ! ! Q Q s.) w I T ",
"T L @.u.o.6 = & . a Y Y u : 5 & & 5 7 7 G T T T T T U S I T T T B B I I U T T T U U m E 7 ; : 7 6 : & j Y 3 . . ; 5 o.z.1.h I U ",
"T T e i.5.8 .   e Y R T p : = . & = 5 7 G T U T T T T U T T T T U T T V S T T T U -.m E 5 ; * = 1 : n U U U > t r , w.+.b U U F ",
"T T U g.r.' 6 & a T T T p , M L u n p 7 K T I F U T T T T T T T I F T I U T T T U U m E 7 : & & = : M S I T r * 9 Q i._ t F U U ",
"U T T k.r.} 9 = M T T T e & M T e b y 5 K T F S U T T T T T T T D F T T T T T T -.U m u * & . y 3 * c S U T r X W ! s.) t F U T ",
"U T T k.t.] 9 = M T T T n 9 Q Q W i , : G T U U T T T T T T T T T T U T T T T T T T m 6 : 7 E Q W E ; c U T y & E ` s._ y U U T ",
"L T T k.t.] 9 = M T T e & 5 7 9 6 ; X & M T T T T T T T T T T T T I B I T T T T T U m ; X ; 6 7 7 6 . x T R p & E ! s._ x U B D ",
"A U T k.w.l *   x T m W 9 5 5 5 6 6 E E G e @ O a t , 4 , 4 4 4 4 , , , 4 , - b T T z i E 5 : 5 5 5 7 Q K U 3 x p 8 t.{ x I B D ",
"a F e i.q.8 .   x T p 7 6 ; ; , = : 6 6 , = - ; - = ; 5 5 : : 5 5 , 5 : , ; = < 1 - * ; 6 : : : ; ; 6 6 c F 2 . = 5 t.{ x T U U ",
"S U F 8.$.9 ; ; + c S L 2 . . . . q # . ; , , 5 : ; - 5 ; ; ; ; ; ; ; 5 ; ; ; 5 , ; * b A # . . . . j L F U j * : 9 $.h.| x T T ",
"L q 9.i._ i , , 1 < < 3 i i l l k 0 0 0 l l W l l W l Q l W l Q l l l l l Q l l W l l i k k l k k l k 4 < < 1 1 , 0 / d.{ x T T ",
"L L -.a.c.z.z.l.l.z.z.l.z.z.z.z.z.z.z.z.z.z.z.z.z.z.z.z.z.z.z.z.z.z.z.z.z.z.z.z.z.z.z.z.z.z.z.z.z.z.z.z.z.z.l.z.z.z.x.n.0.T T T ",
"U T T p , 1 - < 1 1 1 1 1 1 1 ; 1 1 1 1 1 1 1 , 1 1 1 1 1 1 1 1 ; < 1 , 1 1 1 1 1 1 1 ; 1 1 1 - 1 1 1 1 1 1 < 1 1 1 < P -.T T T ",
"U U U L A L J L A S v b F A C A A L L L L C A A C F J J J J J F A L A L A A v C A L A C L L L L L L A A C C J F A J A U T T T T ",
"T F D U T T T T T T U T R U V F T T U T T T T I g D T T T F V U T T T T T T U U T T F V U U T T T T T U B Z T T T L V I T T T T ",
"T I F T T T T T T T T T T T F U T T T U F U T U Z I T T T U F U T T T T T T T T T T F I T T T U F U T U Z F T T T U F U T T T T ",
"T T T T T T I I U T T T T T T T T T T I C I T T U T T T T T T T T T U I I T T T T T T T T T T U D F T T T T T T T T T T T T U I ",
"T T T T T F Z f D T T T T T T U T T T U U T T T T T T T T T T T T U V f B T T T T T T T T T T T U U T T T T T T T T T T T U V f ",
"T T T T F F V f Z T T T T U D F T T T T T T T T T T T T T T T T I D V g B T T T T T D D U T T T T T T T T T T T T T T T U F V g ",
"U T T U F V F Z F T T T T I B Z T T T T T T T T T U U T T T T T S V F V F T T T T T B B U T T T T T T T T T U T T T T T I V F F ",
"U T T T I F V F T T T T T T I I T T T T T T T T T F S T T T T T U F V S U T T T T T I I T T T T T T T T T I V U T T T T U A V F "
};
