/* XPM */
static char *_84fbc7e625b4112a76e0c36ea91c9e3FWzF41gDMkUM79ZQ[] = {
/* columns rows colors chars-per-pixel */
"64 64 168 2 ",
"   c #362F79",
".  c #352E78",
"X  c #2D2A6F",
"o  c #29286A",
"O  c #242765",
"+  c #16245A",
"@  c #232967",
"#  c #352F78",
"$  c #322E76",
"%  c #242B69",
"&  c #292C6E",
"*  c #2F2B71",
"=  c #262767",
"-  c #18255B",
";  c #1F2862",
":  c #342E77",
">  c #342F77",
",  c #262C6B",
"<  c #262C6C",
"1  c #302C73",
"2  c #272868",
"3  c #1C265F",
"4  c #282869",
"5  c #272768",
"6  c #2C2A6E",
"7  c #222663",
"8  c #2A296C",
"9  c #302E74",
"0  c #192960",
"q  c #222B68",
"w  c #342E76",
"e  c #332E76",
"r  c #2A296B",
"t  c #262766",
"y  c #2D2A6E",
"u  c #242665",
"i  c #272869",
"p  c #352E77",
"a  c #1D2A63",
"s  c #1D2A64",
"d  c #332D76",
"f  c #252665",
"g  c #312C73",
"h  c #262666",
"j  c #332D75",
"k  c #2C2D70",
"l  c #2F2E73",
"z  c #2B296C",
"x  c #322D74",
"c  c #2B296D",
"v  c #252666",
"b  c #2D2D71",
"n  c #282868",
"m  c #322D75",
"M  c #2F2C71",
"N  c #312D74",
"B  c #2F2B70",
"V  c #2E2B6F",
"C  c #362F78",
"Z  c #2E2D72",
"A  c #282C6C",
"S  c #322E75",
"D  c #2E2B70",
"F  c #272C6C",
"G  c #302C72",
"H  c #282C6D",
"J  c #252C6B",
"K  c #17295E",
"L  c #252766",
"P  c #2A2D6F",
"I  c #16295E",
"U  c #2F2D73",
"Y  c #18295F",
"T  c #212B67",
"R  c #292869",
"E  c #312E75",
"W  c #2A2C6E",
"Q  c #252767",
"!  c #262B6A",
"~  c #252A69",
"^  c #282B6C",
"/  c #16285D",
"(  c #252C6A",
")  c #2B2C6F",
"_  c #202B66",
"`  c #342F78",
"'  c #1A2961",
"]  c #2B2D70",
"[  c #1B2A62",
"{  c #302E73",
"}  c #2B2D6F",
"|  c #302C71",
" . c #2A2D6E",
".. c #1E2A64",
"X. c #332E77",
"o. c #17295F",
"O. c #2D2D72",
"+. c #2C2A6D",
"@. c #2D2B6F",
"#. c #292C6D",
"$. c #242B6A",
"%. c #2B2A6D",
"&. c #272767",
"*. c #312E74",
"=. c #352F79",
"-. c #332E75",
";. c #1C2A62",
":. c #1F2A65",
">. c #232B69",
",. c #2C2D71",
"<. c #312D73",
"1. c #332F77",
"2. c #232B68",
"3. c #322B70",
"4. c #322A6E",
"5. c #28296A",
"6. c #222A67",
"7. c #242968",
"8. c #1E255F",
"9. c #112557",
"0. c #212A66",
"q. c #212562",
"w. c #122557",
"e. c #1C2962",
"r. c #232664",
"t. c #162459",
"y. c #1C255E",
"u. c #272969",
"i. c #2B2A6C",
"p. c #1E2560",
"a. c #222765",
"s. c #232765",
"d. c #342C73",
"f. c #29286B",
"g. c #29296B",
"h. c #1C2A63",
"j. c #2E2C71",
"k. c #2C2B6F",
"l. c #332C72",
"z. c #282A6B",
"x. c #1B2961",
"c. c #16295D",
"v. c #322C72",
"b. c #212B66",
"n. c #1F2B65",
"m. c #1E2A65",
"M. c #302D73",
"N. c #352E76",
"B. c #29296A",
"V. c #322B6F",
"C. c #2C2767",
"Z. c #1A2960",
"A. c #20215A",
"S. c #282563",
"D. c #312A6D",
"F. c #342D74",
"G. c #2F2D72",
"H. c #202661",
"J. c #15275B",
"K. c #16265B",
"L. c #19265D",
"P. c #152459",
"I. c #17255A",
"U. c #1E2862",
"Y. c #1B255E",
"T. c #252765",
"R. c #332C71",
"E. c white",
/* pixels */
"      . X o O + @ #       $ % & #                             # * o = - ; :       > , < >                               1 o 2 3 ",
"      : 4 5 6 7 8 #       9 0 q #                 w e         # r t y u i p       e a s e                 : d #         X f 6 i ",
"      # g r h 6 j         > k l                 . z o :         x c v z x         # b b #                 X n m         d y t 4 ",
"          M r j                                 # y z :           N o g                                   B r d           d r V ",
"          # p                 : w #               . .             # p #               . e #               # p               p . ",
"                            C y 4 d                                                   * 2 N                                     ",
"# 1 * .   Z A S             C V r e                       x D :   9 F 9               G o x                       j D j   e H k ",
". r 5 w   J K b       : :     . :           p w C         y L x   P I H       p :     # : #         . w #         M f *   U Y T ",
"C g G .   l & $     p 8 z .                 V R j         m * :   E & 9     # y o e                 G 4 g         e * e   e W b ",
"                    p z z .                 D Q ! l                         # y o w                 G = ~ b #                   ",
"                      : :                   e ^ / (                           p :                   : ) Y _ `                   ",
"                                          # F ' q l                                                 ] [ _ k #                   ",
".     ` ] b #                             # , a {   e M e     # b } >                               P [ k   : | m       l  .e   ",
"j     $ [ ..X.p .                           X.S #   * f M     > _ ' E . .                           > E `   x v y       ( o.O.# ",
"p     > & P m r D                                   j V j     # ] H S c 6 .                                 : D N       Z F E D ",
"      # 1 N m 4 X                           m G p               N 1 e r z .                         e G w               j G e X ",
"      : n o : e :                           +.t m             # r 5 d w w           . .             * v G               y t N : ",
"      . D M C                               g @.:             C G D .             . +.6 .           m X j               g @.w   ",
"          9 k e                                                   S k S           p r r p                                 X.k l ",
". #       , Y b                                 . #     . #       P K #.            e e                 . #     # .       l 0 T ",
"r M       b $.E                               j 8 G   : +.@.#     l $.Z                               : %.D # # @.+.:     S ( P ",
"t X $ b $   #     : g w         X.b E         x &.V   w 4 z e b *.=.#     . N j         ` O.9         w 4 z # . 8 4 -.Z l # # =.",
"m : P o.&         G t D       # } o.F         . m :   # j w Z 0 $.#       j = +.C     =.l 0 q #       # j e     e j E ;.:.>     ",
"    l >.Z         j +.N     # & a :.b                       E % }         : 6 G       ,..... .#                     X., H #     ",
"      #           : g w     # >.' l                           # #         . <.j       H Y ] =.                        # #       ",
"  C #             1 t B     # 9 U `             # #         #             j &.+.C   # S Z 1.            # #         #           ",
"# B y :           m z g   : 6 M               *.2.]       G +.e           w +.M   . V V #             e ( H #     x %.x         ",
"w 8 n w             #     j 5 %.#     : x p   Z Y ,       y = x             # C   : o o :     . x :   E [ T `     | t M         ",
"3.j x #     # # #         # x j       * = 1   > b E       e N .     # # #         C m m       N = D   # Z 9       : <.:     # # ",
"4.        g 5.6.] =.                  g 8 x                       j 8 6.H #                   j z G                       : +.7.",
"4.      j z 8.9.0.#       # 9 S       C .                       w X q.w.e.X.      # *.*.#       . C                     : * r.t.",
"4.    : o 5 r y.u.#       9 [ >.#                             # z = i.p.a.:       e :.:.X.                              V t z s.",
"d.    p +.4 f.4 *         S T F #               # * D .       # @.4 g.4 y #       > % % >                 g X :         | 4 o o ",
"C       . 6 v G #           > `                 . g.n w         # * f V .           > >                   6 t x         C g t r ",
"          d G :                                   x g #           : G w                                   j 1 p           . 1 m ",
"                              g D :                                                   x @.e                                     ",
"  : w     X.E #             # c = j                       p e #   > E >               D v 1                       . e .   # E e ",
". +.o :   H [ Z               x G .                       D 4 m   k [ P               d G :                       G 5 G   { h.% ",
"# y r :   & ..l     # G G #                 N B :         B o j   b s ]       g * p                 j D e         g o g   9 :.J ",
". . :     > e #     : 4 4 :                 +.f j.>       . : C   # e #     # z = j                 B u k.X.      # : #   # e > ",
"l.                  # G 1 #                 x z.x.H                           N G .                 d %.e.% #                   ",
"4.                                          Z q ' H                                     p M <.      9 $.' % #                   ",
"4.      e X.                              # >.K } > # : #       X.e =.                  j = z #     H c.F X.# : .       > $ #   ",
"v.    e b.>.>                               O.H e   g 4 g     # $._ $                   p * g       9 H E   m o B       H ..l   ",
"e     e n.q e G x                                   G n 1     ` >.m.E g g C                                 m 4 D       F h.Z m ",
"      # N E x t +.C                         . p     . w .       S N e 4 o p                         # : #   # w p       e M.e +.",
"      : z 6 e D g                           D r d             # X z d * G #                         1 o N               * r m g ",
"N.    : B.z .                               X 4 j             # %.o w                               G 5 g               D n m   ",
"V.      w S X.#                             : e #               : j e #                             . e .               : j e ` ",
"4.        P n.l                                                   Z :.k                                                   *._ F ",
"C.d       F ' Z                               p g d   # <.x       ] Z. .                              # g m     x <.#     l [ >.",
"A.y # > # e 9 >     . C         # > #         N t X   w 2 r : > # > 9 X.    . #           > #         e 5 8 # . r n e ` # ` 9 S ",
"S.g O._ b         x r g         l _ ]         e y g   p V * 9 T &         w z *         $ q A #       p @.M C # * D S >., #     ",
"D.  } 0  .        g = *       9 $.o.A           C           l ' ( #       j 5 6 C     S F Y 2.#                     S a _ >     ",
"4.  X.l e         : N :     # 2.o.& e                       ` l S         . x d       F I J S                       # 9 *.      ",
"F.                m z g     =.P $.$                                       w +.M       b >.9                                     ",
"C j x #           1 t *   # x m #             > Z E       w x .           j 5 6 C   m x `             # U 9       : x :         ",
". 8 4 w           p x :   j 5 +.C       #     Z 0 ,       X = x           # x e   : o o p       #     E [ T `     G t G         ",
"# D 6 :                   : +.*       N +.m   9 q ]       G %.e                   . X @..     j +.g   e % H #     x z x         ",
"  # #     : M.Z S           # C       * t G     # #         #     p N Z 9 =.        # #       g t V     # #         #     # x G.",
"        # V H.J.% #         # =.      : <.:                       G 7 K.:.>         # #       p N w                       x L L.",
"      . V o s.P.@ #       $ ( P #                             # * o Q I.U.:       > F F >                               g r 5 Y.",
"p     : 4 5 6 r.i.C       9 ' q #                 e j C       # 8 t 6 T.4 p       e s s e                 : j #         X f 6 4 ",
"R.    # g g.v 6 j         > k l                 . z o :         x z v z x         # b b #                 X 2 m         j y t 4 "
};
