/* XPM */
static char *_571b2ec3f4a42f2824662449570df6erDTbXkh4y0xWHIYr[] = {
/* columns rows colors chars-per-pixel */
"64 64 176 2 ",
"   c #1C1A06",
".  c #221F08",
"X  c #251615",
"o  c #291817",
"O  c #291918",
"+  c #351F1C",
"@  c #232008",
"#  c #37330D",
"$  c #3E3A0E",
"%  c #372512",
"&  c #3B2713",
"*  c #3D2813",
"=  c #36211E",
"-  c #3A241F",
";  c #3E2723",
":  c #3E2825",
">  c #3C272C",
",  c #3D282D",
"<  c #392733",
"1  c #3C2832",
"2  c #3C2939",
"3  c #3D3233",
"4  c #3D343B",
"5  c #3F3A3D",
"6  c #422D13",
"7  c #443F10",
"8  c #543B10",
"9  c #563A1F",
"0  c #412A23",
"q  c #422E2C",
"w  c #46322E",
"e  c #48332F",
"r  c #523720",
"t  c #523C25",
"y  c #4A2536",
"u  c #4C253B",
"i  c #4A3531",
"p  c #4A3633",
"a  c #41363A",
"s  c #403A3C",
"d  c #4E3C3A",
"f  c #503F3D",
"g  c #5A4011",
"h  c #73511C",
"j  c #564026",
"k  c #5A4327",
"l  c #52413F",
"z  c #6D5628",
"x  c #735C28",
"c  c #152559",
"v  c #1C255E",
"b  c #17295E",
"n  c #18295F",
"m  c #3F3743",
"M  c #3E3E43",
"N  c #24295B",
"B  c #332A5E",
"V  c #1C2A63",
"C  c #252766",
"Z  c #2A2663",
"A  c #212B66",
"S  c #2C2B63",
"D  c #272768",
"F  c #252B6A",
"G  c #2A2A6C",
"H  c #352C64",
"J  c #382D64",
"K  c #362D6D",
"L  c #382E6C",
"P  c #2D3A6B",
"I  c #2E2C71",
"U  c #332E75",
"Y  c #362F79",
"T  c #393876",
"R  c #373079",
"E  c #38327A",
"W  c #4A2D45",
"Q  c #493047",
"!  c #403E42",
"~  c #443B74",
"^  c #433D7E",
"/  c #3E4349",
"(  c #4D4A4F",
")  c #857D7E",
"_  c #C4930B",
"`  c #CA970A",
"'  c #CD990D",
"]  c #D39E0E",
"[  c #DEA708",
"{  c #DCA70C",
"}  c #E3AD0B",
"|  c #E6AD08",
" . c #E4B00E",
".. c #EAB20B",
"X. c #FCBE07",
"o. c #EDB911",
"O. c #CAB535",
"+. c #CFBA35",
"@. c #D1BC35",
"#. c #FEC50B",
"$. c #FEC60D",
"%. c #FECC14",
"&. c #D5C036",
"*. c #DDCB33",
"=. c #FBDE2E",
"-. c #E2CE34",
";. c #E3CF38",
":. c #E5D235",
">. c #E7D238",
",. c #EAD538",
"<. c #EDD939",
"1. c #FFE534",
"2. c #FFE635",
"3. c #FAE73A",
"4. c #FFEB3B",
"5. c #FFEC3B",
"6. c #453E80",
"7. c #39748E",
"8. c #397692",
"9. c #3A7A97",
"0. c #464081",
"q. c #494382",
"w. c #514C85",
"e. c #555088",
"r. c #595389",
"t. c #4575A6",
"y. c #8D0E9D",
"u. c #9511B2",
"i. c #921CB6",
"p. c #877F80",
"a. c #9A17C3",
"s. c #A01ACD",
"d. c #AD1AD8",
"f. c #BE1BF2",
"g. c #C116F3",
"h. c #C616F9",
"j. c #C21BF9",
"k. c #38819F",
"l. c #3984A4",
"z. c #3D88AC",
"x. c #378FB2",
"c. c #4580B7",
"v. c #4581B8",
"b. c #4887C2",
"n. c #4B9DC3",
"m. c #5A97D6",
"M. c #4BA1C9",
"N. c #4DACD7",
"B. c #4CADDA",
"V. c #4DB1DE",
"C. c #57A4E7",
"Z. c #4DB2E1",
"A. c #5BA9F0",
"S. c #5EADF8",
"D. c #63A6F7",
"F. c #4FC3F7",
"G. c #4FC4F9",
"H. c #888181",
"J. c #8E8A8B",
"K. c #918D8D",
"L. c #938F90",
"P. c #948E98",
"I. c #959092",
"U. c #9B989C",
"Y. c #A49E9F",
"T. c #928EA5",
"R. c #9592A5",
"E. c #9996A8",
"W. c #A19FA1",
"Q. c #A29FAC",
"!. c #A4A1A3",
"~. c #A5A2AD",
"^. c #A8A6AF",
"/. c #B0ADAE",
"(. c #B1AFB1",
"). c #B5B3B5",
/* pixels */
"Y Y Y Y G D C c A Y Y Y Y U F G Y Y Y Y Y Y Y U 1 ; ; ; ; ; ; ; ; ; ; ; ; ; ; ; ; 1 S F Y Y Y Y Y Y Y Y Y Y Y Y Y Y Y Y U D F v ",
"Y Y Y Y D D G C G Y Y Y Y U V A Y Y Y Y Y Y U J , ; ; ; ; ; ; ; ; ; ; ; ; ; ; ; ; > N N U Y Y Y Y Y Y Y Y Y U Y Y Y Y Y G C G F ",
"Y Y Y Y U D C G U Y Y Y Y Y I I Y Y Y Y Y U 2 , ; ; ; ; ; ; ; ; ; ; ; ; ; ; ; ; ; ; , 1 K Y Y Y Y Y Y Y Y G D U Y Y Y Y U G C D ",
"Y Y Y Y Y I D U Y Y Y Y Y Y Y Y Y Y Y Y U J , ; ; ; ; ; ; ; ; ; ; ; ; ; ; ; ; ; ; ; ; , J U Y Y Y Y Y Y Y I D U Y Y Y Y Y U D G ",
"Y Y Y Y Y Y Y Y Y Y Y Y Y Y Y Y Y Y Y U 2 , ; ; ; ; ; ; ; ; ; ; ; ; ; ; ; ; ; ; ; ; ; ; , 2 K Y Y Y Y Y Y Y Y Y Y Y Y Y Y Y Y Y ",
"Y Y Y Y Y Y Y Y Y Y Y Y Y Y Y G D U U J , ; ; ; ; ; ; ; ; ; ; ; ; ; ; ; ; ; ; ; ; ; ; ; ; > J U Y Y Y Y Y Y Y Y Y Y Y Y Y Y Y Y ",
"Y U I Y Y I G U Y Y Y Y Y Y Y G D K 2 , ; ; ; ; ; ; ; ; ; ; ; ; ; ; ; ; ; ; ; ; ; ; ; ; ; ; , 2 K Y Y Y Y Y Y Y Y U I U Y U G I ",
"Y D D Y Y F b I Y Y Y Y Y Y Y Y Y K , ; ; ; ; ; ; ; ; ; ; ; ; ; ; ; ; ; ; ; ; ; ; ; ; ; ; ; ; , J U Y Y Y Y Y Y Y I C I Y I n A ",
"Y U U Y Y I G U Y Y Y G G Y Y Y Y U 1 ; ; ; ; ; O o ; ; ; ; ; ; ; ; O o ; ; ; ; ; ; ; ; ; ; ; ; , 2 K D U Y Y Y Y U I U Y U G I ",
"Y Y Y Y Y Y Y Y Y Y Y G G Y Y Y U J , ; ; ; ; - * * - ; ; ; ; ; ; - * * - ; ; ; ; ; ; ; ; ; ; ; ; , H C F I Y Y Y Y Y Y Y Y Y Y ",
"Y Y Y Y Y Y Y Y Y Y Y Y Y Y Y U 2 , ; ; ; ; O & _ ` 6 o ; ; ; ; O & _ ` 6 o ; ; O o ; ; ; ; ; ; ; , L G n A Y Y Y Y Y Y Y Y Y Y ",
"Y Y Y Y Y Y Y Y Y Y Y Y Y Y Y K , ; ; ; ; - & 8 | ..8 * - ; ; - & 8 | | 6 X = - * * - ; ; ; ; ; ; , S V A I Y Y Y Y Y Y Y Y Y Y ",
"Y Y Y Y I I Y Y Y Y Y Y Y Y Y K 1 ; ; ; O * _ | X.X.| ` 6 X X & _ | X.| 6 X X & _ ` 6 o ; ; ; ; ; , S V I Y Y U U Y Y Y I G U Y ",
"U Y Y U V V U Y Y Y Y Y Y Y Y K 1 ; ; ; X * [ #.$.$.$...g * & 8 } $.$...g * & 8  ...g * - ; ; ; ; , H K Y Y U C G Y Y Y F b I Y ",
"Y Y Y Y G G U D I Y Y Y Y Y Y U 1 ; ; ; X * [ $.=.2.2.=. .[ [ } =.2.2.=. .[ [ } =.=. .` 6 X X o ; ; , 2 K Y Y I U Y Y Y I F U I ",
"Y Y Y Y U U U D G Y Y Y Y Y U J , ; ; ; o 6 { %.2.5.5.2.%.$.$.%.2.5.5.2.%.$.$.%.2.2.$.| 6 X & * ; ; ; , L Y Y Y Y Y Y Y U U U G ",
"Y Y Y Y D D Y U Y Y Y Y Y U 2 , ; ; ; ; ; t -.2.5.5.5.5.2.2.2.2.4.4.4.4.2.2.2.2.4.2.$.| 6 % _ ' 9 ; ; > H Y Y Y Y Y Y Y G C U Y ",
"Y Y Y Y I I Y Y Y Y Y Y Y K , ; ; ; ; ; ; t ;.4.:.;.;.:.3.5.4.4.4.4.4.3.:.:.:.:.3.2.%...8 8 | ..9 ; ; > L Y Y Y Y Y Y Y U G Y Y ",
"Y Y Y Y Y U I U Y Y Y Y Y K 1 ; ; ; ; ; ; t :.:.7 @ . $ *.5.4.4.4.4.5.:.7 @ . $ *.4.2.=. .| #...9 ; ; , L Y Y Y Y Y Y Y Y U I I ",
"Y Y Y Y Y F n I Y Y Y Y Y K 1 ; ; ; ; 0 t z >.:.$     # *.5.4.4.4.4.5.:.$     # *.5.5.2.$.X...] 9 ; ; , L Y Y Y Y Y Y Y Y I V A ",
"D I Y Y Y I F U Y Y Y Y Y K 1 ; ; ; ; t O.>.3.3.*.*.*.*.3.4.5.5.5.5.4.3.*.*.*.*.3.4.4.2.$...h 9 0 ; ; , S I Y Y G G Y Y Y U F G ",
"C G U I U Y Y Y Y Y U Y Y K 1 ; ; ; ; t ;.5.4.4.5.5.5.5.4.3.:.;.;.:.3.4.5.5.5.5.4.4.4.2.o.] 9 ; ; ; ; , B G Y Y G D U I I Y Y Y ",
"U Y G b G Y Y Y Y U C I Y K 1 ; ; ; ; t :.5.4.4.4.4.4.4.5.:.7 @ . $ *.5.4.4.4.4.5.5.5.<.x 9 0 ; ; ; ; , L U Y Y U U U V V Y Y Y ",
"Y Y I A I Y Y Y Y U G U Y K 1 ; ; ; ; t +.<.3.4.4.4.4.4.5.:.$     # *.5.4.4.4.4.<.,.,.&.j ; ; ; ; ; ; , L Y Y Y Y Y U F G Y Y Y ",
"Y Y Y Y Y Y Y Y Y Y U Y Y K 1 ; ; ; ; 0 t z ,.5.5.5.4.4.4.3.*.*.*.*.3.4.4.4.5.<.x k k j 0 ; ; ; ; ; ; , L Y Y Y Y Y Y Y Y Y Y Y ",
"Y Y Y Y Y Y Y Y Y U C I Y K 1 ; ; ; ; ; ; t +.,.,.<.3.4.4.4.5.5.5.5.4.4.4.4.<.&.j ; ; ; ; ; ; ; ; ; ; , L Y Y Y Y Y Y Y Y Y Y Y ",
"Y I G Y Y Y Y Y Y U G U Y K > ; ; ; ; ; ; 0 j k k z ,.5.5.5.5.5.4.4.4.4.5.<.x j 0 ; ; ; ; ; ; ; ; ; ; , N G Y Y Y U G U Y Y Y Y ",
"Y G D Y Y Y Y Y Y Y Y Y Y K < > : : > > ; ; ; ; ; t +.,.,.,.,.<.3.4.4.4.<.&.j ; ; ; ; ; ; ; > > : : > 1 N A Y Y Y U C I Y Y Y Y ",
"U U U Y Y Y Y Y Y Y Y Y Y Y K H , > J B > ; ; ; ; 0 j k k k k z >.4.5.<.x j 0 ; ; ; ; ; ; > J H > > J K I U Y Y Y Y U Y Y Y Y Y ",
"K Y Y Y Y U D A I Y Y Y Y Y Y U 2 2 K K < , , , , , > , , > ; t ;.5.5.,.k ; > , , , , , ; , L K < 1 K Y Y Y Y Y Y Y Y Y Y Y G F ",
"K Y Y Y U G v c A Y Y Y Y Y U U K K Y Y K L L L L L L K K J > t :.5.5.,.k > J L K K K H > , L Y K K Y Y Y Y Y Y Y Y Y Y Y I C c ",
"K Y Y Y D D D v F Y Y Y Y U V A Y Y Y Y Y Y Y Y Y Y Y Y U J > t +.,.,.&.j > J U K K V N 1 2 K Y Y Y Y Y Y Y Y Y Y Y Y Y G C G C ",
"U Y Y Y G D D D I Y Y Y Y U A F Y Y Y Y Y Y Y Y Y I G K 2 > ; 0 j k k j 0 ; > > , 2 S F K K Y Y Y Y Y Y Y U G Y Y Y Y Y U D D D ",
"Y Y Y Y Y G C U Y Y Y Y Y Y Y Y Y Y Y Y Y Y U K K S Z J 4 3 : ; ; ; ; ; ; : 3 3 : , H K K U Y Y Y Y Y Y Y G C U Y Y Y Y Y U C D ",
"Y Y Y Y Y U U Y Y Y Y Y Y Y Y Y Y Y Y Y Y U 2 , 1 , > 4 8.8.3 ; ; ; ; ; ; 3 7.8.3 ; , 1 , 2 K Y Y Y Y Y Y U U Y Y Y Y Y Y Y U U ",
"Y Y Y Y Y Y Y Y Y Y Y Y Y Y Y U I Y Y Y U L 4 3 : : 3 M l.l./ 3 3 3 3 3 3 M l.l./ 3 : : 3 4 J U Y Y Y Y Y Y Y Y Y Y Y Y Y Y Y Y ",
"Y Y Y Y Y U U Y Y Y Y Y Y Y Y G C U Y U 2 4 8.8.3 3 7.l.x.x.l.k.k.k.k.k.k.l.x.x.l.8.3 3 7.8.4 2 K Y Y Y Y Y Y Y Y Y U Y Y Y U U ",
"Y G D Y Y G V I Y Y Y Y Y Y Y U U Y U L m / 9.9.Q W t.v.c.c.c.c.c.c.c.c.c.c.c.c.v.t.4 3 8.9.M 4 J U Y Y Y Y Y Y Y U D U Y U V F ",
"Y G D Y Y G V I Y Y Y U U Y Y Y Y U 2 m n.n./ Q y.u.a.a.a.a.a.a.a.a.a.a.a.a.a.a.a.i.u : 3 M 8.8.4 2 L I U Y Y Y Y U D U Y U V F ",
"Y Y Y Y Y Y U Y Y Y Y D D Y Y Y Y K , s N.V.M y i.s.s.s.s.s.s.s.s.s.s.s.s.s.s.s.s.i.Q 3 : 3 l.l.4 , H C G U Y Y Y Y Y Y Y Y U Y ",
"U Y Y Y Y Y Y Y Y Y Y U U Y Y Y Y K > s N.Z.! a m.A.A.A.A.A.A.A.A.A.A.A.A.A.A.A.A.C.z.8.3 3 l.l.4 > L G V F Y Y Y Y Y Y Y Y Y Y ",
"K Y Y Y Y Y Y Y Y Y Y Y Y Y Y Y Y K > a n.M.s a m.S.S.S.S.S.S.S.S.S.S.S.S.S.S.S.S.A.b.t.4 3 8.9.3 > K F V F Y Y Y Y Y Y Y Y Y Y ",
"K Y Y Y U U Y Y Y Y Y Y Y Y Y Y Y K 1 : 5 5 : u d.j.j.j.j.j.j.j.j.j.j.j.j.j.j.j.j.f.s.i.u : 3 3 : , S b F U Y Y Y Y Y Y Y U Y Y ",
"U Y Y U A A Y Y Y Y Y Y Y Y Y Y Y K 1 0 t t 0 u d.h.h.h.h.h.h.h.h.h.h.h.h.h.h.h.h.g.d.i.u 0 r r 0 , H G U Y U D I Y Y Y G V I Y ",
"U Y Y U V A U U U Y Y Y Y Y Y Y Y K 1 t +.@.t a m.D.D.D.D.D.D.D.D.D.D.D.D.D.D.D.D.D.A.m.! 9 ' ] 9 > L Y Y Y U D I Y Y Y F V I U ",
"Y Y Y Y U U U C G Y Y Y Y Y Y Y Y K 1 t @.&.k s N.G.F.F.F.F.G.G.F.F.F.F.F.F.F.F.F.F.G.V.! 9 ] { 9 > L Y Y Y Y Y Y Y Y Y U U U G ",
"Y Y Y Y G G U I U Y Y Y Y Y Y Y Y K , 0 j j 0 s N.F.F.F.F.F.G.G.G.G.G.G.F.F.F.F.F.F.F.V.! 0 9 9 0 , H D U Y Y Y Y Y Y Y I D U U ",
"Y Y Y Y D G Y Y Y Y Y Y Y Y Y Y Y U 2 , > > ; s N.F.F.F.F.F.Z.V.V.V.V.Z.F.F.F.F.F.F.F.V.! ; > > , 2 K D U Y Y Y Y Y Y Y I D U Y ",
"K Y Y Y Y U U Y Y Y Y Y Y Y Y Y Y Y K K K J > s N.F.F.F.G.Z.( ! ! M ! ( B.F.F.F.F.F.G.V.! > J K K K Y U Y Y Y Y Y Y Y Y Y U U Y ",
"K Y Y Y Y G V I Y Y Y Y Y Y Y Y Y R ^ 6.6.~ , s N.F.F.F.G.V.! ; w e ; s N.F.F.F.F.F.G.V.! , ~ 6.6.6.E Y Y Y Y Y Y Y Y Y Y U A F ",
"Z U Y Y Y F V I Y Y Y Y Y Y Y Y Y ^ T.~.~.P.p 5 N.G.G.G.G.Z.! w ) p.p 5 B.G.G.G.G.G.G.Z.! p P.~.~.R.6.Y U U Y Y U U Y Y Y I V A ",
"N G Y Y Y U U Y Y Y Y Y Y E ^ 6.^ w.~.).).!.p 4 n.V.V.V.Z.M.5 p K.L.p 4 n.V.V.V.V.V.Z.M.5 p W.).).^.e.^ T T R Y D D U Y Y Y U U ",
"Z U I A I Y Y Y Y U D U Y ^ T.~.Q.~.).).).!.d : 5 M ! ! ! s : p K.L.p : s ! ! ! ! ! ! 5 : p Y.).).).~.Q.~.R.^ Y I I U A F Y Y Y ",
"K Y G V G Y Y Y Y U C U ^ w.~.).).).).).).!.( p p e : ; ; ; ; p K.L.p ; ; ; ; ; ; 0 w p p ( !.).).).).).).^.e.^ E Y U V A Y Y Y ",
"K Y U I U Y Y Y Y Y U ^ T.~.).).).).).).).(.I.K.K.H.p ; = = = w J.L.w = = = ; ; ; e ) K.J.L./.).).).).).).).~.R.0.Y Y U U Y Y Y ",
"Y Y Y Y Y Y Y Y Y U G ^ ~.).).).).).).).).).!.U.I.H.p ; = = + q J.K.w = = = ; ; ; w ) I.U.W.(.).).).).).).).).~.q.R Y Y Y Y Y Y ",
"Y U U Y Y Y Y Y Y U C T ~.).).).).).).).).).!.L.l q ; = + + + q J.K.w + + + = = = = q d K.W.(.).).).).).).).).~.q.Y U Y Y Y Y Y ",
"Y G D Y Y Y Y Y Y Y U ^ Q.).).).).).).).).).!.I.f q q q q q q d K.I.f q q q q q q q q d K.!.).).).).).).).).).~.q.U C U Y Y Y Y ",
"Y I G U Y Y Y Y Y Y Y 6.~.).).).).).).).).).)./.L.J.J.J.J.J.J.K.U.U.K.J.J.J.J.J.J.J.J.L./.).).).).).).).).).).~.q.U G U Y Y Y Y ",
"Y Y Y Y Y Y U I U Y Y ^ R.^.).).).).).).).).).).!.W.W.W.W.W.W.W.W.W.W.W.W.W.W.W.W.W.W.!.).).).).).).).).).).^.E.0.Y Y Y Y Y U I ",
"Y Y Y Y Y G C c F Y Y E 6.e.~.).).).).).).).).).).(.(.(.(.(.(.(.(.(.(.(.(.(.(.(.(.(.(.).).).).).).).).).).^.r.0.E Y Y Y Y U C v ",
"Y Y Y Y G D C c A Y Y Y Y T R.~.~.^.).).).).).).).).).).).).).).).).).).).).).).).).).).).).).).).).^.~.~.E.0.R Y Y Y Y U D D v ",
"Y Y Y Y D D G C G Y Y Y Y U P T 0.e.~.).).).).).).).).).).).).).).).).).).).).).).).).).).).).).).^.r.q.q.^ Y Y Y Y Y Y G C G D ",
"U Y Y Y U D C G U Y Y Y Y Y I U R 6.Q.).).).).).).).).).).).).).).).).).).).).).).).).).).).).).).~.q.R R G F U Y Y Y Y U G C D "
};
