/* XPM */
static char *result[] = {
/* columns rows colors chars-per-pixel */
"64 64 42 1 ",
"  c #060206",
". c #090307",
"X c #0B060C",
"o c #0D090F",
"O c #10070F",
"+ c #120711",
"@ c #150913",
"# c #180A17",
"$ c #1D0C1C",
"% c #200D1F",
"& c #240F23",
"* c #271025",
"= c #291026",
"- c #2D122B",
"; c #31142E",
": c #331531",
"> c #3A1736",
", c #3B1937",
"< c #3B1638",
"1 c #3D193A",
"2 c #421B3E",
"3 c #451C42",
"4 c #4A1E46",
"5 c #4D1F49",
"6 c #4C204A",
"7 c #51204D",
"8 c #562352",
"9 c #592555",
"0 c #5E2559",
"q c #61275B",
"w c #64285F",
"e c #672961",
"r c #6B2B65",
"t c #6E2C68",
"y c #742E6D",
"u c #77306E",
"i c #762E70",
"p c #773171",
"a c #7A3174",
"s c #7F3379",
"d c #84357D",
"f c #843880",
/* pixels */
"XXXXXXXXXoooXooXXXXXXXoooooooooXoooooooXXXXXXXXXXoooXXXoXXoooooX",
"&&&***%*%%%%%%%o&****%&%%%%%&&%%%%&&%%&%&&*&%Xo*%&%%&**%&%&%%%&%",
"99889999999999-X=8989999999999999999999999992@@19999899999999899",
"rerrererrrrre9-X*8rreerrererererrereeerereet2@@2rrerrreerrererre",
"dddddddddddds9-X*8adddddffddddddddddffsfdddt1##1rffdfdddddddffsd",
"dddddddddddds9:o-7psddddfsddddddfdddfffsdddy3$#2esssddddddddffdd",
"ddddddddddddde6:<48wyddddddddddddddddddddddy9<:369rsdddddddddddd",
"ddddddddddddduw95<-3qaddddddddddddddddfddddatq52:>8tdddddddddddd",
"ddddddddddddddsa8;+-7sdddddddddddddddddddddddsr3%#2rdddddddddddd",
"ddddddddddddddds0-.&7addddddddddddddddddddddddt3@O2rdddddddddddd",
"ddddddddddddddds0-X&7addddddddddddddddddddddddy3@O,wdddddddddddd",
"dddddddddddsddds9;X&7ddddddsddddddddddddddddddr2#O2wdddddddddddd",
"wqqwwwwwwwwwwww04&.$20ewqee0ewweqeqeqewwqqwwww7>@O;7wwwqwwwqqqww",
"2>>2<>>>>>,>,,,,&@ X&:><<><<>>>>><>><<<>><<>><;$..#->>>22>>2,<>2",
"OOOOOoOOOO+OOooX.   .XX+++ooXOOOOOOO+OOO+OOOOOXX  .OOOOOOO+OOOOO",
"###@########################+.  O+##############@#######@@###X#@",
"2222222222222222222222223233;# O%22222222222222222222222221*OoO*",
"rrtyttttttttrtttttrtttrttrrr7-X#2wttttrwtrttrrttrttttttrttw1#o$1",
"uddddddddddddddddddddddddddde:+$4udddddddddddddddddddddddda5%o$5",
"uddddddddddddddddddddddddddse:X%4uddddddddddddddddddddddddi5$o$5",
"udddddddddddddddddddddddddddw>X$4udddddddddddddddddddddddfi5$o$6",
"tttwrrdddddddddddddddddddddde1#&4radddddddddddddddddddddddi7=$=7",
"t636qrddddddddddddddddddddddy71<248rddddddddddddddddddddddiq413w",
"t3--6rddddddddddddddddddddddayq72=>0ddddddddddddddddddddddippyiu",
"r3-o4rddddddddddddddddddddddddae<O%4yfdddddddddddddddddddddddddd",
"t3-o4rddddddddddddddddddddddddde>O#4yddddddddddddddddddddddddddd",
"r2;X4tadddddddddddddddddddddddde>O$4tddddddddddddddddddddddddddd",
"r6;X2qudadadadadssdddaddaddadadq>X#3tdddddadaddadddaddadssdsdddd",
"q4-.%2qqq0qq0qqq0qqq00q0000q00q3&.@;7000qq0qqqqq8000qqqqq00qqq00",
"XXo  *;:;;;;;;:;;;;;;;;;;;;;;;:&#.X#-;;:;;;;;;;;-;:;;;;;;;;;;;;;",
"XX   XXXXXX.XXX.XXXXXXXXXXXXO.X..   XXOX.XXXX......O.XXXXXXXX.OX",
"%%$$$$$$%%%%$@. .@$%%%$%%%%%%%%$$$%%%$$%%%%#O  O%%%%%%%%%%$%%%$%",
"4444444445444;#.@;25444444444454445454444441&X.&<454454445454544",
"uyyuyyuuyyyyy4&X%4tyyyyyyyuiiyyyyyyuyyyyyyyq<++>0yyyyyyyyyyyyyyu",
"dddddddddddda9-X=8addddddddddddddddddddddddt3++2tddddddddddddddd",
"ddddddddddddd8-X&8dddddddddddddddddddddddddt2##1tdddfddddddddddd",
"dddddddddddda8-X=7dddddddddddddddddddddddddt2@+2tdfddddddddddddd",
"ddddddddddddd0<#;7taaddddddddddddddddddddddt4&%2qyasdddddddddddd",
"dddddddddddddt722330tddddddddddfdddddddddddaq41237qadddddddddddd",
"dddddddddddfditq7:&,0ddddddddddddddddddddddsyr83--5yfddddddddddd",
"dddddddddddddddd8;X&7sddddddfdddddddddddddddddy3#@2rdddddddddddd",
"dddddddddddddddi8;X&8addddddddddddddddddddddddt2@O<rdddddddddddd",
"ddddddddffddddfd0;.=7sddddddddfddddddfddddffddy3#@2edddddddddddd",
"ddudduudaassdadi7-X&5yssssasasasdaadaadadaadsae2@O,wudaddddddedd",
"87887888888897971%.#>78898988888788888888888884=OX&4888888882888",
";-;-------------$X X$&-;----------------==----&#..@&-------;=;;=",
"XX.X.O...XXXXXXX.   .XXXXX.... .X.XXXXXXXXXXXXX.  ..X.X.....O.O.",
"&&&&==%=&&&&&&&&&&=&&&&&&&&&$O .+&&&&&&&=&&&=&&&&&&&=%====%@..O#",
"77777777777775777777777775751%.+-35555755577555575777777774-+X&<",
"aaiauuuauaaaaaaaaaaiiaaaaaai0;X$2eddiidiidiiididaaaaaiiaaat3$+>q",
"ddddddddddfdddddfddfddfdddfdq>X$5ifdddddfddfdddfddddffdfddi5%+2r",
"dddddddddddddddddddfddddddddq>O%5ifdddddddddddddddddddddddi5%O2r",
"ddddddddddddddddddddddddddddq>X$4ddddddddddddddfddddddddddy5$@2t",
"yaddddddddddddddddddddddddddr4&-3qtydddddddddddddddddddddda8;%20",
"7wadddddddddddddddddddddddddy043227eidddddddddddddddddddddse7615",
"-7ydddddddddddddddddddddddddsyt82&-7ddddfdddddddddddddddddsyt92&",
"@<rdddddfdddddddddddddddddddddde<O%3yddddfddddddddddddfddddddt2#",
"+2rdddsdddddddddddddddddddddddde:O#4yddddddddddfdddddddddddddt2#",
"+1rdddffddddddddddddfdddfddfddde<O#4ydddffffffffdddfdffffddddy1#",
"O1qaaaiaaaaaaaiaapaaaaaaaaapapa0;O#2eiidaiaiiiiiaaiaaiapaaaaae1#",
"X&777577777577576677768657777761& o-477575777757757767778758547X",
" #&&&&&&&&&&&&&&&*&*&&&*&&&&*&&$O .@%------------------------&&.",
"XXXXoXXooXooXXXXXXXXXXXXXXXXXXoX..XXXXXXooXooXoXooXXXXXXXXXXXXXX",
" .          .       X .             . ..            X        .  "
};
